<svg xmlns="http://www.w3.org/2000/svg" xmlns:xlink="http://www.w3.org/1999/xlink" width="90" zoomAndPan="magnify" viewBox="0 0 67.5 67.499996" height="90" preserveAspectRatio="xMidYMid meet" version="1.0"><defs><clipPath id="4fc6516f23"><path d="M 2.464844 0.417969 L 64.253906 0.417969 L 64.253906 66.675781 L 2.464844 66.675781 Z M 2.464844 0.417969 " clip-rule="nonzero"/></clipPath><clipPath id="293a8217c7"><path d="M 32 0.417969 L 64.253906 0.417969 L 64.253906 66.675781 L 32 66.675781 Z M 32 0.417969 " clip-rule="nonzero"/></clipPath></defs><g clip-path="url(#4fc6516f23)"><path fill="#e23237" d="M 2.464844 11.523438 L 32.933594 0.617188 L 64.207031 11.355469 L 59.152344 51.890625 L 32.933594 66.480469 L 7.140625 52.078125 Z M 2.464844 11.523438 " fill-opacity="1" fill-rule="nonzero"/></g><g clip-path="url(#293a8217c7)"><path fill="#b52e31" d="M 64.207031 11.355469 L 32.933594 0.617188 L 32.933594 66.480469 L 59.152344 51.890625 Z M 64.207031 11.355469 " fill-opacity="1" fill-rule="nonzero"/></g><path fill="#ffffff" d="M 32.980469 8.3125 L 13.992188 50.796875 L 21.078125 50.652344 L 24.90625 41.050781 L 41.886719 41.050781 L 46.046875 50.726562 L 52.800781 50.871094 Z M 33.027344 21.953125 L 39.453125 35.445312 L 27.425781 35.445312 L 33.046875 21.953125 Z M 33.027344 21.953125 " fill-opacity="1" fill-rule="nonzero"/></svg>