<svg xmlns="http://www.w3.org/2000/svg" xmlns:xlink="http://www.w3.org/1999/xlink" width="90" zoomAndPan="magnify" viewBox="0 0 67.5 67.499996" height="90" preserveAspectRatio="xMidYMid meet" version="1.0"><path fill="#5d87a1" d="M 20.511719 47.789062 L 18.695312 47.789062 C 18.632812 44.726562 18.457031 41.847656 18.167969 39.152344 L 18.148438 39.152344 L 15.386719 47.789062 L 14.007812 47.789062 L 11.261719 39.152344 L 11.246094 39.152344 C 11.042969 41.742188 10.914062 44.621094 10.859375 47.789062 L 9.207031 47.789062 C 9.3125 43.933594 9.582031 40.324219 10.011719 36.949219 L 12.257812 36.949219 L 14.875 44.914062 L 14.890625 44.914062 L 17.523438 36.949219 L 19.675781 36.949219 C 20.144531 40.898438 20.425781 44.511719 20.511719 47.789062 M 28.375 39.792969 C 27.636719 43.800781 26.664062 46.710938 25.453125 48.53125 C 24.511719 49.929688 23.480469 50.628906 22.355469 50.628906 C 22.054688 50.628906 21.6875 50.539062 21.25 50.359375 L 21.25 49.394531 C 21.460938 49.425781 21.714844 49.441406 22.003906 49.441406 C 22.527344 49.441406 22.949219 49.296875 23.273438 49.007812 C 23.65625 48.65625 23.847656 48.257812 23.847656 47.820312 C 23.847656 47.519531 23.699219 46.90625 23.398438 45.972656 L 21.410156 39.792969 L 23.191406 39.792969 L 24.621094 44.414062 C 24.941406 45.464844 25.074219 46.199219 25.019531 46.617188 C 25.800781 44.527344 26.347656 42.253906 26.660156 39.792969 Z M 28.375 39.792969 " fill-opacity="1" fill-rule="nonzero"/><path fill="#f8981d" d="M 52.523438 47.789062 L 47.371094 47.789062 L 47.371094 36.949219 L 49.105469 36.949219 L 49.105469 46.453125 L 52.523438 46.453125 Z M 46.019531 48.050781 L 44.027344 47.066406 C 44.207031 46.921875 44.375 46.765625 44.527344 46.582031 C 45.375 45.589844 45.796875 44.117188 45.796875 42.167969 C 45.796875 38.582031 44.390625 36.789062 41.574219 36.789062 C 40.195312 36.789062 39.117188 37.246094 38.347656 38.15625 C 37.5 39.148438 37.078125 40.617188 37.078125 42.554688 C 37.078125 44.460938 37.453125 45.855469 38.203125 46.742188 C 38.886719 47.546875 39.917969 47.949219 41.300781 47.949219 C 41.816406 47.949219 42.289062 47.886719 42.71875 47.757812 L 45.3125 49.269531 Z M 39.566406 45.621094 C 39.128906 44.914062 38.910156 43.78125 38.910156 42.21875 C 38.910156 39.488281 39.738281 38.121094 41.398438 38.121094 C 42.265625 38.121094 42.902344 38.449219 43.308594 39.101562 C 43.746094 39.808594 43.964844 40.929688 43.964844 42.472656 C 43.964844 45.222656 43.136719 46.601562 41.476562 46.601562 C 40.609375 46.601562 39.972656 46.273438 39.566406 45.621094 M 36.324219 44.785156 C 36.324219 45.703125 35.984375 46.457031 35.3125 47.046875 C 34.636719 47.636719 33.734375 47.929688 32.601562 47.929688 C 31.539062 47.929688 30.511719 47.59375 29.515625 46.917969 L 29.984375 45.988281 C 30.839844 46.417969 31.613281 46.628906 32.308594 46.628906 C 32.964844 46.628906 33.472656 46.484375 33.84375 46.199219 C 34.214844 45.910156 34.433594 45.503906 34.433594 44.996094 C 34.433594 44.351562 33.984375 43.800781 33.160156 43.339844 C 32.402344 42.921875 30.882812 42.050781 30.882812 42.050781 C 30.058594 41.449219 29.648438 40.804688 29.648438 39.746094 C 29.648438 38.867188 29.953125 38.15625 30.570312 37.617188 C 31.183594 37.074219 31.980469 36.804688 32.953125 36.804688 C 33.960938 36.804688 34.875 37.074219 35.699219 37.609375 L 35.28125 38.539062 C 34.574219 38.242188 33.878906 38.089844 33.195312 38.089844 C 32.636719 38.089844 32.210938 38.226562 31.910156 38.492188 C 31.609375 38.761719 31.425781 39.101562 31.425781 39.519531 C 31.425781 40.160156 31.882812 40.71875 32.730469 41.1875 C 33.5 41.605469 35.054688 42.492188 35.054688 42.492188 C 35.902344 43.09375 36.324219 43.730469 36.324219 44.785156 " fill-opacity="1" fill-rule="nonzero"/><path fill="#5d87a1" d="M 54.699219 33.320312 C 53.652344 33.292969 52.839844 33.398438 52.160156 33.6875 C 51.960938 33.765625 51.648438 33.765625 51.621094 34.015625 C 51.726562 34.121094 51.742188 34.289062 51.832031 34.433594 C 51.988281 34.695312 52.261719 35.046875 52.511719 35.230469 C 52.789062 35.441406 53.0625 35.652344 53.351562 35.835938 C 53.863281 36.148438 54.4375 36.332031 54.933594 36.648438 C 55.222656 36.828125 55.511719 37.066406 55.800781 37.261719 C 55.945312 37.367188 56.035156 37.535156 56.21875 37.601562 L 56.21875 37.5625 C 56.125 37.445312 56.101562 37.273438 56.007812 37.144531 L 55.617188 36.765625 C 55.238281 36.253906 54.765625 35.808594 54.253906 35.441406 C 53.835938 35.152344 52.917969 34.761719 52.75 34.277344 L 52.722656 34.25 C 53.011719 34.222656 53.351562 34.121094 53.625 34.039062 C 54.070312 33.921875 54.476562 33.949219 54.933594 33.832031 C 55.144531 33.777344 55.355469 33.710938 55.566406 33.648438 L 55.566406 33.53125 C 55.328125 33.292969 55.160156 32.980469 54.910156 32.757812 C 54.242188 32.179688 53.507812 31.617188 52.75 31.148438 C 52.34375 30.882812 51.820312 30.714844 51.386719 30.492188 C 51.230469 30.414062 50.96875 30.375 50.875 30.242188 C 50.640625 29.953125 50.507812 29.574219 50.339844 29.234375 C 49.960938 28.515625 49.59375 27.714844 49.265625 26.957031 C 49.027344 26.445312 48.886719 25.933594 48.597656 25.464844 C 47.246094 23.238281 45.78125 21.890625 43.53125 20.566406 C 43.046875 20.289062 42.46875 20.171875 41.855469 20.027344 L 40.871094 19.976562 C 40.664062 19.886719 40.453125 19.636719 40.269531 19.519531 C 39.523438 19.046875 37.597656 18.027344 37.046875 19.375 C 36.695312 20.226562 37.570312 21.0625 37.875 21.496094 C 38.097656 21.796875 38.382812 22.136719 38.539062 22.476562 C 38.632812 22.699219 38.660156 22.9375 38.75 23.171875 C 38.960938 23.75 39.15625 24.390625 39.429688 24.925781 C 39.574219 25.203125 39.730469 25.488281 39.914062 25.738281 C 40.019531 25.882812 40.203125 25.945312 40.242188 26.183594 C 40.0625 26.445312 40.046875 26.839844 39.941406 27.164062 C 39.472656 28.644531 39.65625 30.476562 40.324219 31.566406 C 40.53125 31.894531 41.03125 32.613281 41.695312 32.335938 C 42.285156 32.101562 42.15625 31.355469 42.324219 30.699219 C 42.363281 30.542969 42.339844 30.4375 42.417969 30.335938 L 42.417969 30.359375 C 42.601562 30.726562 42.785156 31.082031 42.953125 31.449219 C 43.359375 32.089844 44.066406 32.757812 44.65625 33.199219 C 44.96875 33.4375 45.21875 33.84375 45.613281 33.988281 L 45.613281 33.949219 L 45.585938 33.949219 C 45.507812 33.832031 45.390625 33.777344 45.285156 33.6875 C 45.050781 33.453125 44.789062 33.164062 44.605469 32.902344 C 44.054688 32.167969 43.570312 31.355469 43.140625 30.519531 C 42.925781 30.113281 42.746094 29.667969 42.574219 29.261719 C 42.496094 29.105469 42.496094 28.867188 42.363281 28.789062 C 42.167969 29.078125 41.882812 29.328125 41.738281 29.679688 C 41.488281 30.242188 41.460938 30.9375 41.371094 31.65625 L 41.316406 31.683594 C 40.902344 31.578125 40.753906 31.148438 40.597656 30.78125 C 40.207031 29.851562 40.140625 28.355469 40.480469 27.285156 C 40.570312 27.007812 40.964844 26.144531 40.808594 25.882812 C 40.730469 25.632812 40.464844 25.488281 40.324219 25.292969 C 40.152344 25.042969 39.96875 24.730469 39.851562 24.453125 C 39.535156 23.722656 39.378906 22.910156 39.039062 22.175781 C 38.882812 21.835938 38.609375 21.484375 38.386719 21.167969 C 38.136719 20.816406 37.863281 20.566406 37.664062 20.148438 C 37.597656 20.003906 37.507812 19.765625 37.613281 19.609375 C 37.636719 19.503906 37.691406 19.464844 37.796875 19.441406 C 37.964844 19.296875 38.449219 19.480469 38.621094 19.558594 C 39.105469 19.753906 39.511719 19.9375 39.917969 20.210938 C 40.101562 20.34375 40.296875 20.59375 40.53125 20.65625 L 40.808594 20.65625 C 41.226562 20.75 41.699219 20.683594 42.089844 20.800781 C 42.785156 21.023438 43.414062 21.351562 43.976562 21.703125 C 45.691406 22.792969 47.105469 24.335938 48.0625 26.183594 C 48.21875 26.484375 48.285156 26.761719 48.425781 27.074219 C 48.703125 27.714844 49.042969 28.371094 49.316406 29 C 49.59375 29.613281 49.855469 30.242188 50.25 30.753906 C 50.445312 31.027344 51.230469 31.171875 51.585938 31.316406 C 51.847656 31.433594 52.253906 31.539062 52.488281 31.683594 C 52.933594 31.957031 53.378906 32.273438 53.796875 32.574219 C 54.003906 32.730469 54.660156 33.058594 54.699219 33.320312 M 41.34375 21.941406 C 41.160156 21.9375 40.980469 21.960938 40.804688 22.007812 L 40.804688 22.03125 L 40.832031 22.03125 C 40.9375 22.242188 41.121094 22.386719 41.25 22.570312 C 41.355469 22.78125 41.449219 22.988281 41.550781 23.199219 L 41.578125 23.171875 C 41.761719 23.042969 41.851562 22.832031 41.851562 22.515625 C 41.773438 22.425781 41.761719 22.335938 41.695312 22.242188 C 41.617188 22.109375 41.449219 22.046875 41.34375 21.941406 " fill-opacity="1" fill-rule="nonzero"/><path fill="#f8981d" d="M 55.945312 47.785156 L 56.21875 47.785156 L 56.21875 46.457031 L 55.8125 46.457031 L 55.480469 47.363281 L 55.117188 46.457031 L 54.726562 46.457031 L 54.726562 47.785156 L 54.980469 47.785156 L 54.980469 46.777344 L 54.996094 46.777344 L 55.375 47.785156 L 55.570312 47.785156 L 55.945312 46.777344 Z M 53.761719 47.785156 L 54.046875 47.785156 L 54.046875 46.683594 L 54.421875 46.683594 L 54.421875 46.457031 L 53.371094 46.457031 L 53.371094 46.683594 L 53.761719 46.683594 Z M 53.761719 47.785156 " fill-opacity="1" fill-rule="nonzero"/></svg>