<svg xmlns="http://www.w3.org/2000/svg" xmlns:xlink="http://www.w3.org/1999/xlink" width="437" zoomAndPan="magnify" viewBox="0 0 327.75 444.749982" height="593" preserveAspectRatio="xMidYMid meet" version="1.0"><defs><clipPath id="cde1bbc542"><path d="M 7.820312 29 L 313 29 L 313 273 L 7.820312 273 Z M 7.820312 29 " clip-rule="nonzero"/></clipPath><clipPath id="09fcd3036a"><path d="M 22 172 L 319.582031 172 L 319.582031 415.554688 L 22 415.554688 Z M 22 172 " clip-rule="nonzero"/></clipPath></defs><g clip-path="url(#cde1bbc542)"><path fill="#ffb400" d="M 135.824219 34.949219 C 123.722656 31.199219 111.175781 29.011719 91.457031 29.011719 L 7.820312 29.011719 L 7.820312 272.863281 L 91.457031 272.863281 C 98.515625 272.863281 104.675781 272.582031 110.167969 272.078125 L 221.867188 160.375 L 312.953125 69.289062 L 222.148438 148.445312 C 221.027344 93.714844 184.894531 49.964844 135.824219 34.949219 Z M 58.628906 226.253906 L 58.628906 76.125 L 91.457031 76.125 C 109.328125 76.125 119.523438 78.476562 128.710938 82.566406 C 155.09375 94.441406 171.226562 120.660156 171.226562 151.078125 C 171.226562 181.496094 155.09375 207.878906 128.710938 219.589844 C 119.523438 223.679688 109.328125 226.199219 91.457031 226.199219 L 58.628906 226.199219 Z M 58.628906 226.253906 " fill-opacity="1" fill-rule="nonzero"/></g><g clip-path="url(#09fcd3036a)"><path fill="#e09717" d="M 228.984375 264.851562 C 197.5 259.585938 178.007812 255.273438 174.867188 242.445312 C 174.589844 241.210938 174.421875 239.921875 174.421875 238.523438 C 174.421875 226.085938 188.035156 219.589844 203.101562 217.90625 C 205.792969 217.628906 208.480469 217.460938 211.167969 217.460938 C 233.128906 217.460938 256.769531 225.636719 272.902344 239.25 L 301.808594 203.007812 C 285.953125 190.570312 268.363281 181.832031 250.269531 176.789062 C 242.148438 174.492188 233.914062 172.925781 225.734375 172.140625 L 22.777344 375.097656 L 135.878906 276.503906 C 148.765625 293.085938 171.898438 302.273438 198.566406 307.816406 C 234.417969 315.324219 269.652344 318.179688 269.652344 340.980469 C 269.652344 359.691406 246.515625 368.207031 225.789062 368.207031 C 199.070312 368.207031 173.582031 355.265625 153.359375 336.722656 L 122.773438 373.304688 C 156.605469 403.554688 194.195312 415.484375 226.6875 415.484375 C 279.0625 415.484375 319.675781 383.835938 319.675781 340.8125 C 319.621094 285.410156 269.988281 271.6875 228.984375 264.851562 Z M 228.984375 264.851562 " fill-opacity="1" fill-rule="nonzero"/></g></svg>