<svg xmlns="http://www.w3.org/2000/svg" xmlns:xlink="http://www.w3.org/1999/xlink" width="90" zoomAndPan="magnify" viewBox="0 0 67.5 67.499996" height="90" preserveAspectRatio="xMidYMid meet" version="1.0"><defs><clipPath id="5903b581fd"><path d="M 7.449219 4.390625 L 59.5625 4.390625 L 59.5625 62.460938 L 7.449219 62.460938 Z M 7.449219 4.390625 " clip-rule="nonzero"/></clipPath></defs><g clip-path="url(#5903b581fd)"><path fill="#0277bd" d="M 59.554688 4.390625 L 7.453125 4.390625 L 12.050781 56.347656 L 33.503906 62.460938 L 54.960938 56.347656 Z M 59.554688 4.390625 " fill-opacity="1" fill-rule="nonzero"/></g><path fill="#039be5" d="M 33.503906 8.976562 L 33.503906 57.722656 L 50.667969 52.832031 L 54.5 8.976562 Z M 33.503906 8.976562 " fill-opacity="1" fill-rule="nonzero"/><path fill="#ffffff" d="M 47.449219 16.617188 L 33.503906 16.617188 L 33.503906 22.730469 L 41.011719 22.730469 L 40.554688 28.839844 L 33.503906 28.839844 L 33.503906 34.953125 L 40.246094 34.953125 L 39.789062 41.832031 L 33.503906 43.96875 L 33.503906 50.386719 L 45.609375 46.414062 L 46.683594 28.839844 Z M 47.449219 16.617188 " fill-opacity="1" fill-rule="nonzero"/><path fill="#eeeeee" d="M 33.503906 16.617188 L 33.503906 22.730469 L 19.867188 22.730469 L 19.40625 16.617188 Z M 26.457031 28.839844 L 26.761719 34.953125 L 33.503906 34.953125 L 33.503906 28.839844 Z M 27.066406 38.011719 L 20.9375 38.011719 L 21.398438 46.414062 L 33.503906 50.386719 L 33.503906 43.96875 L 27.222656 41.832031 Z M 27.066406 38.011719 " fill-opacity="1" fill-rule="nonzero"/></svg>