<svg xmlns="http://www.w3.org/2000/svg" xmlns:xlink="http://www.w3.org/1999/xlink" width="90" zoomAndPan="magnify" viewBox="0 0 67.5 67.499996" height="90" preserveAspectRatio="xMidYMid meet" version="1.0"><defs><clipPath id="37f2f451c8"><path d="M 0.820312 0.820312 L 66.332031 0.820312 L 66.332031 66.332031 L 0.820312 66.332031 Z M 0.820312 0.820312 " clip-rule="nonzero"/></clipPath></defs><g clip-path="url(#37f2f451c8)"><path fill="#f03c2e" d="M 65.097656 30.660156 L 36.492188 2.054688 C 36.296875 1.859375 36.085938 1.683594 35.855469 1.53125 C 35.625 1.375 35.382812 1.246094 35.125 1.140625 C 34.871094 1.035156 34.605469 0.953125 34.332031 0.902344 C 34.0625 0.847656 33.789062 0.820312 33.511719 0.820312 C 33.234375 0.820312 32.960938 0.847656 32.6875 0.902344 C 32.417969 0.953125 32.152344 1.035156 31.894531 1.140625 C 31.640625 1.246094 31.398438 1.375 31.167969 1.53125 C 30.9375 1.683594 30.722656 1.859375 30.527344 2.054688 L 24.589844 7.992188 L 32.125 15.527344 C 33.878906 14.914062 35.882812 15.332031 37.28125 16.730469 C 37.613281 17.0625 37.890625 17.433594 38.121094 17.847656 C 38.347656 18.257812 38.515625 18.691406 38.617188 19.152344 C 38.722656 19.609375 38.765625 20.074219 38.738281 20.542969 C 38.714844 21.011719 38.625 21.46875 38.46875 21.914062 L 45.730469 29.175781 C 47.488281 28.570312 49.515625 28.960938 50.917969 30.367188 C 51.152344 30.601562 51.359375 30.855469 51.542969 31.128906 C 51.726562 31.402344 51.878906 31.691406 52.007812 31.996094 C 52.132812 32.300781 52.226562 32.617188 52.292969 32.941406 C 52.355469 33.261719 52.390625 33.589844 52.390625 33.917969 C 52.390625 34.25 52.355469 34.574219 52.292969 34.898438 C 52.226562 35.222656 52.132812 35.535156 52.007812 35.839844 C 51.878906 36.144531 51.726562 36.4375 51.542969 36.710938 C 51.359375 36.984375 51.152344 37.238281 50.917969 37.472656 C 50.683594 37.703125 50.429688 37.914062 50.15625 38.09375 C 49.882812 38.277344 49.59375 38.433594 49.289062 38.558594 C 48.984375 38.6875 48.667969 38.78125 48.347656 38.84375 C 48.023438 38.910156 47.695312 38.941406 47.367188 38.941406 C 47.035156 38.941406 46.710938 38.910156 46.386719 38.84375 C 46.0625 38.78125 45.75 38.683594 45.445312 38.558594 C 45.140625 38.433594 44.851562 38.277344 44.574219 38.09375 C 44.300781 37.910156 44.046875 37.703125 43.816406 37.46875 C 42.339844 35.996094 41.976562 33.824219 42.722656 32.007812 L 35.949219 25.234375 L 35.949219 43.058594 C 36.445312 43.300781 36.886719 43.617188 37.28125 44.007812 C 37.511719 44.242188 37.722656 44.496094 37.902344 44.769531 C 38.085938 45.042969 38.242188 45.332031 38.367188 45.636719 C 38.496094 45.941406 38.589844 46.253906 38.652344 46.578125 C 38.71875 46.902344 38.75 47.226562 38.75 47.558594 C 38.75 47.886719 38.71875 48.214844 38.652344 48.535156 C 38.589844 48.859375 38.496094 49.175781 38.367188 49.480469 C 38.242188 49.785156 38.085938 50.074219 37.902344 50.347656 C 37.722656 50.621094 37.511719 50.875 37.28125 51.109375 C 37.046875 51.339844 36.792969 51.546875 36.519531 51.730469 C 36.246094 51.914062 35.957031 52.070312 35.652344 52.195312 C 35.347656 52.320312 35.03125 52.417969 34.710938 52.480469 C 34.386719 52.546875 34.058594 52.578125 33.730469 52.578125 C 33.398438 52.578125 33.074219 52.546875 32.75 52.480469 C 32.425781 52.417969 32.113281 52.320312 31.808594 52.195312 C 31.503906 52.070312 31.214844 51.914062 30.941406 51.730469 C 30.667969 51.546875 30.414062 51.339844 30.179688 51.109375 C 29.945312 50.875 29.738281 50.621094 29.554688 50.347656 C 29.371094 50.074219 29.214844 49.785156 29.089844 49.480469 C 28.964844 49.175781 28.867188 48.859375 28.804688 48.539062 C 28.738281 48.214844 28.707031 47.886719 28.707031 47.558594 C 28.707031 47.226562 28.738281 46.902344 28.804688 46.578125 C 28.867188 46.253906 28.964844 45.941406 29.089844 45.636719 C 29.214844 45.332031 29.371094 45.042969 29.554688 44.769531 C 29.738281 44.492188 29.945312 44.242188 30.179688 44.007812 C 30.664062 43.523438 31.203125 43.15625 31.824219 42.914062 L 31.824219 24.925781 C 31.226562 24.679688 30.664062 24.316406 30.179688 23.828125 C 29.828125 23.476562 29.535156 23.082031 29.300781 22.640625 C 29.066406 22.203125 28.898438 21.738281 28.804688 21.25 C 28.707031 20.761719 28.683594 20.269531 28.734375 19.773438 C 28.785156 19.277344 28.90625 18.800781 29.097656 18.339844 L 21.667969 10.914062 L 2.054688 30.503906 C 1.855469 30.699219 1.683594 30.914062 1.527344 31.144531 C 1.375 31.375 1.242188 31.617188 1.136719 31.875 C 1.03125 32.128906 0.953125 32.394531 0.898438 32.664062 C 0.84375 32.9375 0.816406 33.210938 0.816406 33.488281 C 0.816406 33.765625 0.84375 34.039062 0.898438 34.3125 C 0.953125 34.585938 1.03125 34.847656 1.136719 35.105469 C 1.242188 35.359375 1.375 35.605469 1.527344 35.832031 C 1.683594 36.0625 1.855469 36.277344 2.054688 36.472656 L 30.660156 65.074219 C 30.855469 65.269531 31.066406 65.445312 31.296875 65.597656 C 31.527344 65.753906 31.769531 65.882812 32.027344 65.988281 C 32.285156 66.09375 32.546875 66.175781 32.820312 66.230469 C 33.089844 66.285156 33.363281 66.308594 33.640625 66.308594 C 33.917969 66.308594 34.191406 66.285156 34.464844 66.230469 C 34.738281 66.175781 35 66.09375 35.257812 65.988281 C 35.511719 65.882812 35.753906 65.753906 35.984375 65.597656 C 36.214844 65.445312 36.429688 65.269531 36.625 65.074219 L 65.097656 36.648438 C 65.292969 36.453125 65.46875 36.238281 65.621094 36.007812 C 65.777344 35.777344 65.90625 35.535156 66.011719 35.277344 C 66.117188 35.023438 66.199219 34.757812 66.253906 34.488281 C 66.308594 34.214844 66.335938 33.941406 66.335938 33.664062 C 66.335938 33.386719 66.308594 33.113281 66.253906 32.839844 C 66.199219 32.566406 66.117188 32.304688 66.011719 32.046875 C 65.90625 31.792969 65.777344 31.550781 65.621094 31.320312 C 65.46875 31.089844 65.292969 30.875 65.097656 30.679688 " fill-opacity="1" fill-rule="nonzero"/></g></svg>