<svg xmlns="http://www.w3.org/2000/svg" xmlns:xlink="http://www.w3.org/1999/xlink" width="90" zoomAndPan="magnify" viewBox="0 0 67.5 67.499996" height="90" preserveAspectRatio="xMidYMid meet" version="1.0"><defs><clipPath id="e2426419d1"><path d="M 1.191406 1.191406 L 65.960938 1.191406 L 65.960938 65.960938 L 1.191406 65.960938 Z M 1.191406 1.191406 " clip-rule="nonzero"/></clipPath></defs><g clip-path="url(#e2426419d1)"><path fill="#ffd600" d="M 1.191406 1.191406 L 65.960938 1.191406 L 65.960938 65.960938 L 1.191406 65.960938 Z M 1.191406 1.191406 " fill-opacity="1" fill-rule="nonzero"/></g><path fill="#000001" d="M 43.539062 49.671875 C 44.785156 51.695312 46.136719 53.632812 49.003906 53.632812 C 51.410156 53.632812 52.675781 52.4375 52.675781 50.78125 C 52.675781 48.800781 51.367188 48.097656 48.71875 46.945312 L 47.269531 46.324219 C 43.078125 44.546875 40.289062 42.320312 40.289062 37.617188 C 40.289062 33.28125 43.609375 29.980469 48.796875 29.980469 C 52.492188 29.980469 55.144531 31.257812 57.058594 34.609375 L 52.535156 37.5 C 51.542969 35.722656 50.464844 35.023438 48.796875 35.023438 C 47.09375 35.023438 46.015625 36.097656 46.015625 37.5 C 46.015625 39.234375 47.097656 39.9375 49.589844 41.011719 L 51.039062 41.628906 C 55.980469 43.734375 58.765625 45.878906 58.765625 50.710938 C 58.765625 55.914062 54.65625 58.765625 49.140625 58.765625 C 43.742188 58.765625 40.679688 56.058594 38.972656 52.707031 Z M 22.695312 49.820312 C 23.605469 51.449219 24.988281 52.707031 26.980469 52.707031 C 28.882812 52.707031 29.976562 51.953125 29.976562 49.03125 L 29.976562 29.976562 L 35.972656 29.976562 L 35.972656 49.949219 C 35.972656 56.007812 32.460938 58.765625 27.328125 58.765625 C 22.691406 58.765625 19.347656 55.625 17.984375 52.707031 Z M 22.695312 49.820312 " fill-opacity="1" fill-rule="nonzero"/></svg>