<svg xmlns="http://www.w3.org/2000/svg" xmlns:xlink="http://www.w3.org/1999/xlink" width="90" zoomAndPan="magnify" viewBox="0 0 67.5 67.499996" height="90" preserveAspectRatio="xMidYMid meet" version="1.0"><defs><clipPath id="0f542ca1c4"><path d="M 4.425781 0.691406 L 62.496094 0.691406 L 62.496094 66.207031 L 4.425781 66.207031 Z M 4.425781 0.691406 " clip-rule="nonzero"/></clipPath></defs><g clip-path="url(#0f542ca1c4)"><path fill="#539e43" d="M 33.460938 66.199219 C 32.558594 66.199219 31.71875 65.957031 30.941406 65.539062 L 22.960938 60.800781 C 21.761719 60.140625 22.359375 59.902344 22.722656 59.78125 C 24.339844 59.238281 24.640625 59.121094 26.320312 58.160156 C 26.5 58.039062 26.742188 58.101562 26.921875 58.222656 L 33.039062 61.878906 C 33.277344 62 33.582031 62 33.761719 61.878906 L 57.695312 48.023438 C 57.9375 47.902344 58.058594 47.664062 58.058594 47.363281 L 58.058594 19.703125 C 58.058594 19.40625 57.9375 19.164062 57.695312 19.046875 L 33.761719 5.246094 C 33.519531 5.125 33.21875 5.125 33.039062 5.246094 L 9.101562 19.046875 C 8.863281 19.164062 8.742188 19.464844 8.742188 19.703125 L 8.742188 47.363281 C 8.742188 47.601562 8.863281 47.902344 9.101562 48.023438 L 15.640625 51.800781 C 19.179688 53.601562 21.402344 51.503906 21.402344 49.402344 L 21.402344 22.105469 C 21.402344 21.746094 21.703125 21.386719 22.121094 21.386719 L 25.179688 21.386719 C 25.539062 21.386719 25.902344 21.683594 25.902344 22.105469 L 25.902344 49.402344 C 25.902344 54.140625 23.320312 56.902344 18.820312 56.902344 C 17.441406 56.902344 16.363281 56.902344 13.300781 55.402344 L 7.003906 51.800781 C 5.441406 50.902344 4.484375 49.222656 4.484375 47.421875 L 4.484375 19.765625 C 4.484375 17.964844 5.441406 16.285156 7.003906 15.386719 L 30.941406 1.527344 C 32.4375 0.6875 34.480469 0.6875 35.980469 1.527344 L 59.917969 15.386719 C 61.476562 16.285156 62.4375 17.964844 62.4375 19.765625 L 62.4375 47.421875 C 62.4375 49.222656 61.476562 50.902344 59.917969 51.800781 L 35.980469 65.660156 C 35.199219 66.019531 34.300781 66.199219 33.460938 66.199219 Z M 40.839844 47.183594 C 30.339844 47.183594 28.179688 42.382812 28.179688 38.300781 C 28.179688 37.941406 28.480469 37.582031 28.902344 37.582031 L 32.019531 37.582031 C 32.378906 37.582031 32.679688 37.820312 32.679688 38.183594 C 33.160156 41.363281 34.539062 42.921875 40.898438 42.921875 C 45.9375 42.921875 48.097656 41.78125 48.097656 39.082031 C 48.097656 37.523438 47.5 36.382812 39.640625 35.605469 C 33.101562 34.941406 29.019531 33.503906 29.019531 28.285156 C 29.019531 23.425781 33.101562 20.542969 39.9375 20.542969 C 47.617188 20.542969 51.398438 23.183594 51.878906 28.945312 C 51.878906 29.125 51.816406 29.304688 51.699219 29.484375 C 51.578125 29.605469 51.398438 29.722656 51.21875 29.722656 L 48.097656 29.722656 C 47.800781 29.722656 47.5 29.484375 47.441406 29.183594 C 46.71875 25.886719 44.859375 24.804688 39.9375 24.804688 C 34.421875 24.804688 33.761719 26.726562 33.761719 28.164062 C 33.761719 29.902344 34.539062 30.445312 41.980469 31.402344 C 49.359375 32.363281 52.839844 33.742188 52.839844 38.902344 C 52.777344 44.179688 48.457031 47.183594 40.839844 47.183594 Z M 40.839844 47.183594 " fill-opacity="1" fill-rule="nonzero"/></g></svg>