<svg xmlns="http://www.w3.org/2000/svg" xmlns:xlink="http://www.w3.org/1999/xlink" width="90" zoomAndPan="magnify" viewBox="0 0 67.5 67.499996" height="90" preserveAspectRatio="xMidYMid meet" version="1.0"><path fill="#00d8ff" d="M 55.066406 23.066406 C 54.355469 22.824219 53.636719 22.59375 52.910156 22.386719 C 53.03125 21.890625 53.144531 21.398438 53.242188 20.914062 C 54.875 12.972656 53.808594 6.578125 50.164062 4.46875 C 46.671875 2.453125 40.957031 4.558594 35.1875 9.589844 C 34.617188 10.085938 34.0625 10.597656 33.519531 11.125 C 33.15625 10.773438 32.785156 10.433594 32.410156 10.097656 C 26.359375 4.714844 20.296875 2.445312 16.65625 4.558594 C 13.167969 6.582031 12.132812 12.597656 13.601562 20.121094 C 13.75 20.867188 13.914062 21.609375 14.097656 22.34375 C 13.238281 22.589844 12.410156 22.851562 11.621094 23.125 C 4.527344 25.605469 0 29.488281 0 33.515625 C 0 37.675781 4.863281 41.847656 12.246094 44.378906 C 12.847656 44.582031 13.449219 44.769531 14.058594 44.945312 C 13.859375 45.738281 13.683594 46.539062 13.53125 47.339844 C 12.132812 54.734375 13.226562 60.605469 16.707031 62.617188 C 20.300781 64.695312 26.335938 62.5625 32.214844 57.414062 C 32.691406 56.996094 33.15625 56.5625 33.609375 56.121094 C 34.199219 56.691406 34.800781 57.242188 35.421875 57.777344 C 41.113281 62.6875 46.734375 64.667969 50.214844 62.652344 C 53.804688 60.566406 54.972656 54.257812 53.457031 46.585938 C 53.335938 45.984375 53.203125 45.386719 53.054688 44.792969 C 53.480469 44.667969 53.894531 44.535156 54.300781 44.402344 C 61.980469 41.851562 66.972656 37.730469 66.972656 33.515625 C 66.972656 29.472656 62.300781 25.5625 55.066406 23.066406 Z M 53.402344 41.679688 C 53.035156 41.800781 52.660156 41.917969 52.277344 42.03125 C 51.429688 39.34375 50.285156 36.484375 48.886719 33.527344 C 50.222656 30.644531 51.320312 27.820312 52.144531 25.148438 C 52.828125 25.347656 53.496094 25.558594 54.136719 25.777344 C 60.332031 27.917969 64.113281 31.078125 64.113281 33.515625 C 64.113281 36.109375 60.03125 39.476562 53.402344 41.679688 Z M 50.652344 47.144531 C 51.320312 50.535156 51.417969 53.605469 50.972656 56.003906 C 50.574219 58.15625 49.773438 59.59375 48.78125 60.167969 C 46.667969 61.394531 42.15625 59.800781 37.289062 55.605469 C 36.710938 55.105469 36.148438 54.59375 35.601562 54.066406 C 37.492188 51.996094 39.375 49.589844 41.21875 46.921875 C 44.457031 46.632812 47.515625 46.160156 50.289062 45.519531 C 50.421875 46.058594 50.542969 46.597656 50.652344 47.144531 Z M 22.832031 59.957031 C 20.769531 60.6875 19.128906 60.707031 18.136719 60.132812 C 16.023438 58.914062 15.144531 54.199219 16.34375 47.875 C 16.484375 47.128906 16.648438 46.386719 16.832031 45.648438 C 19.574219 46.257812 22.613281 46.691406 25.855469 46.957031 C 27.710938 49.570312 29.652344 51.972656 31.605469 54.074219 C 31.191406 54.480469 30.765625 54.871094 30.332031 55.253906 C 27.730469 57.53125 25.128906 59.144531 22.832031 59.957031 Z M 13.171875 41.664062 C 9.90625 40.546875 7.210938 39.089844 5.359375 37.503906 C 3.699219 36.078125 2.863281 34.664062 2.863281 33.515625 C 2.863281 31.070312 6.496094 27.953125 12.5625 25.835938 C 13.296875 25.578125 14.066406 25.335938 14.867188 25.105469 C 15.703125 27.839844 16.804688 30.695312 18.128906 33.585938 C 16.785156 36.515625 15.671875 39.417969 14.824219 42.183594 C 14.269531 42.023438 13.71875 41.851562 13.171875 41.664062 Z M 16.410156 19.570312 C 15.152344 13.125 15.988281 8.261719 18.089844 7.039062 C 20.332031 5.742188 25.285156 7.59375 30.507812 12.242188 C 30.847656 12.542969 31.183594 12.855469 31.515625 13.171875 C 29.566406 15.265625 27.644531 17.648438 25.808594 20.246094 C 22.660156 20.539062 19.644531 21.007812 16.871094 21.640625 C 16.699219 20.953125 16.546875 20.265625 16.410156 19.570312 Z M 45.300781 26.71875 C 44.644531 25.585938 43.96875 24.46875 43.265625 23.363281 C 45.402344 23.632812 47.449219 23.992188 49.371094 24.433594 C 48.792969 26.289062 48.074219 28.226562 47.226562 30.214844 C 46.609375 29.035156 45.964844 27.871094 45.300781 26.71875 Z M 33.519531 15.21875 C 34.839844 16.652344 36.160156 18.253906 37.460938 19.988281 C 34.824219 19.863281 32.183594 19.863281 29.546875 19.988281 C 30.847656 18.265625 32.179688 16.667969 33.519531 15.21875 Z M 21.664062 26.742188 C 21.003906 27.882812 20.375 29.039062 19.773438 30.210938 C 18.9375 28.230469 18.226562 26.285156 17.644531 24.402344 C 19.554688 23.972656 21.59375 23.625 23.714844 23.359375 C 23.003906 24.46875 22.320312 25.597656 21.664062 26.738281 Z M 23.777344 43.875 C 21.582031 43.628906 19.515625 43.296875 17.605469 42.882812 C 18.195312 40.96875 18.925781 38.976562 19.773438 36.957031 C 20.382812 38.128906 21.015625 39.285156 21.675781 40.429688 C 22.351562 41.601562 23.054688 42.753906 23.777344 43.875 Z M 33.597656 52.011719 C 32.242188 50.546875 30.890625 48.921875 29.570312 47.179688 C 30.851562 47.230469 32.160156 47.253906 33.488281 47.253906 C 34.851562 47.253906 36.203125 47.222656 37.53125 47.164062 C 36.226562 48.941406 34.910156 50.566406 33.597656 52.011719 Z M 47.253906 36.851562 C 48.148438 38.898438 48.902344 40.875 49.503906 42.757812 C 47.5625 43.203125 45.464844 43.558594 43.257812 43.824219 C 43.964844 42.699219 44.648438 41.5625 45.3125 40.410156 C 45.984375 39.238281 46.632812 38.050781 47.253906 36.851562 Z M 42.832031 38.976562 C 41.820312 40.742188 40.746094 42.476562 39.621094 44.171875 C 37.578125 44.316406 35.535156 44.390625 33.488281 44.386719 C 31.402344 44.386719 29.375 44.324219 27.421875 44.195312 C 26.265625 42.503906 25.175781 40.765625 24.148438 38.992188 C 23.128906 37.226562 22.175781 35.421875 21.292969 33.582031 C 22.175781 31.746094 23.125 29.941406 24.140625 28.171875 C 25.15625 26.40625 26.242188 24.675781 27.390625 22.992188 C 29.378906 22.839844 31.421875 22.761719 33.488281 22.761719 C 35.5625 22.761719 37.605469 22.839844 39.597656 22.992188 C 40.734375 24.675781 41.808594 26.398438 42.824219 28.15625 C 43.84375 29.921875 44.808594 31.714844 45.710938 33.542969 C 44.816406 35.386719 43.855469 37.199219 42.832031 38.976562 Z M 48.734375 6.953125 C 50.976562 8.25 51.851562 13.480469 50.441406 20.335938 C 50.351562 20.769531 50.25 21.21875 50.140625 21.667969 C 47.363281 21.027344 44.34375 20.546875 41.183594 20.25 C 39.34375 17.625 37.4375 15.234375 35.523438 13.167969 C 36.027344 12.683594 36.539062 12.210938 37.0625 11.753906 C 42.007812 7.441406 46.628906 5.738281 48.734375 6.953125 Z M 33.488281 27.519531 C 36.789062 27.519531 39.46875 30.203125 39.46875 33.515625 C 39.46875 36.824219 36.789062 39.507812 33.488281 39.507812 C 30.183594 39.507812 27.507812 36.824219 27.507812 33.515625 C 27.507812 30.203125 30.183594 27.519531 33.488281 27.519531 Z M 33.488281 27.519531 " fill-opacity="1" fill-rule="nonzero"/></svg>