<svg xmlns="http://www.w3.org/2000/svg" xmlns:xlink="http://www.w3.org/1999/xlink" width="90" zoomAndPan="magnify" viewBox="0 0 67.5 67.499996" height="90" preserveAspectRatio="xMidYMid meet" version="1.0"><defs><clipPath id="52c4798241"><path d="M 1.46875 1.46875 L 65.496094 1.46875 L 65.496094 65.496094 L 1.46875 65.496094 Z M 1.46875 1.46875 " clip-rule="nonzero"/></clipPath></defs><g clip-path="url(#52c4798241)"><path fill="#007acc" d="M 1.46875 65.496094 L 65.496094 65.496094 L 65.496094 1.46875 L 1.46875 1.46875 Z M 1.46875 65.496094 " fill-opacity="1" fill-rule="nonzero"/></g><path fill="#ffffff" d="M 15.625 33.691406 L 15.605469 36.316406 L 23.9375 36.316406 L 23.9375 59.996094 L 29.835938 59.996094 L 29.835938 36.316406 L 38.167969 36.316406 L 38.167969 33.746094 C 38.167969 32.324219 38.136719 31.132812 38.097656 31.101562 C 38.066406 31.0625 32.996094 31.042969 26.84375 31.050781 L 15.65625 31.082031 Z M 15.625 33.691406 " fill-opacity="1" fill-rule="nonzero"/><path fill="#ffffff" d="M 53.132812 31.007812 C 54.757812 31.414062 56 32.136719 57.136719 33.316406 C 57.726562 33.945312 58.601562 35.09375 58.671875 35.367188 C 58.691406 35.453125 55.90625 37.320312 54.21875 38.367188 C 54.160156 38.40625 53.917969 38.144531 53.640625 37.738281 C 52.820312 36.535156 51.953125 36.019531 50.632812 35.929688 C 48.691406 35.796875 47.441406 36.8125 47.453125 38.511719 C 47.453125 39.007812 47.523438 39.304688 47.726562 39.707031 C 48.152344 40.59375 48.945312 41.121094 51.433594 42.199219 C 56.019531 44.171875 57.980469 45.46875 59.199219 47.320312 C 60.5625 49.382812 60.867188 52.675781 59.941406 55.125 C 58.925781 57.789062 56.40625 59.597656 52.859375 60.195312 C 51.761719 60.390625 49.160156 60.359375 47.980469 60.144531 C 45.40625 59.6875 42.96875 58.417969 41.464844 56.753906 C 40.875 56.101562 39.726562 54.402344 39.796875 54.28125 C 39.832031 54.242188 40.09375 54.078125 40.386719 53.90625 C 40.671875 53.742188 41.75 53.125 42.765625 52.535156 L 44.605469 51.46875 L 44.992188 52.035156 C 45.53125 52.859375 46.710938 53.988281 47.421875 54.363281 C 49.464844 55.441406 52.269531 55.285156 53.652344 54.050781 C 54.242188 53.507812 54.484375 52.949219 54.484375 52.128906 C 54.484375 51.386719 54.394531 51.058594 54.007812 50.503906 C 53.507812 49.789062 52.492188 49.191406 49.605469 47.941406 C 46.304688 46.519531 44.878906 45.632812 43.578125 44.230469 C 42.828125 43.417969 42.117188 42.117188 41.820312 41.027344 C 41.578125 40.125 41.515625 37.859375 41.710938 36.945312 C 42.390625 33.753906 44.800781 31.527344 48.273438 30.867188 C 49.402344 30.65625 52.027344 30.734375 53.132812 31.007812 Z M 53.132812 31.007812 " fill-opacity="1" fill-rule="nonzero"/></svg>